solid openscad_duct_connector_type_b
  facet normal -1 0 0
    outer loop
      vertex -30 -195 -105
      vertex -30 -195 105
      vertex -30 -190 100
    endloop
  endfacet
  facet normal -1 0 0
    outer loop
      vertex -30 -195 -105
      vertex -30 -190 -100
      vertex -30 195 -105
    endloop
  endfacet
  facet normal -1 0 0
    outer loop
      vertex -30 -195 -105
      vertex -30 -190 100
      vertex -30 -190 -100
    endloop
  endfacet
  facet normal 0 0 -1
    outer loop
      vertex -30 -195 -105
      vertex -30 195 -105
      vertex -25 195 -105
    endloop
  endfacet
  facet normal 0 -1 0
    outer loop
      vertex -30 -195 -105
      vertex -25 -195 -105
      vertex -25 -195 105
    endloop
  endfacet
  facet normal 0 -1 0
    outer loop
      vertex -30 -195 -105
      vertex -25 -195 105
      vertex -30 -195 105
    endloop
  endfacet
  facet normal 0 0 -1
    outer loop
      vertex -30 -195 -105
      vertex -25 195 -105
      vertex -25 -195 -105
    endloop
  endfacet
  facet normal -1 0 0
    outer loop
      vertex -30 -195 105
      vertex -30 195 105
      vertex -30 -190 100
    endloop
  endfacet
  facet normal 0 0 1
    outer loop
      vertex -30 -195 105
      vertex -25 -195 105
      vertex -30 195 105
    endloop
  endfacet
  facet normal 0 1 0
    outer loop
      vertex -30 -190 -100
      vertex -30 -190 100
      vertex -25 -190 -100
    endloop
  endfacet
  facet normal -1 0 0
    outer loop
      vertex -30 -190 -100
      vertex -30 190 -100
      vertex -30 195 -105
    endloop
  endfacet
  facet normal 0 0 1
    outer loop
      vertex -30 -190 -100
      vertex -25 -190 -100
      vertex -30 190 -100
    endloop
  endfacet
  facet normal 0 0 -1
    outer loop
      vertex -30 -190 100
      vertex -30 190 100
      vertex -25 190 100
    endloop
  endfacet
  facet normal -1 0 0
    outer loop
      vertex -30 -190 100
      vertex -30 195 105
      vertex -30 190 100
    endloop
  endfacet
  facet normal 0 1 0
    outer loop
      vertex -30 -190 100
      vertex -25 -190 100
      vertex -25 -190 -100
    endloop
  endfacet
  facet normal 0 0 -1
    outer loop
      vertex -30 -190 100
      vertex -25 190 100
      vertex -25 -190 100
    endloop
  endfacet
  facet normal -1 0 0
    outer loop
      vertex -30 190 -100
      vertex -30 190 100
      vertex -30 195 105
    endloop
  endfacet
  facet normal -1 0 0
    outer loop
      vertex -30 190 -100
      vertex -30 195 105
      vertex -30 195 -105
    endloop
  endfacet
  facet normal 0 0 1
    outer loop
      vertex -30 190 -100
      vertex -25 -190 -100
      vertex -25 190 -100
    endloop
  endfacet
  facet normal 0 -1 0
    outer loop
      vertex -30 190 -100
      vertex -25 190 -100
      vertex -25 190 100
    endloop
  endfacet
  facet normal 0 -1 0
    outer loop
      vertex -30 190 -100
      vertex -25 190 100
      vertex -30 190 100
    endloop
  endfacet
  facet normal 0 1 0
    outer loop
      vertex -30 195 -105
      vertex -30 195 105
      vertex -25 195 -105
    endloop
  endfacet
  facet normal 0 0 1
    outer loop
      vertex -30 195 105
      vertex -25 -195 105
      vertex -25 195 105
    endloop
  endfacet
  facet normal 0 1 0
    outer loop
      vertex -30 195 105
      vertex -25 195 105
      vertex -25 195 -105
    endloop
  endfacet
  facet normal 1 0 0
    outer loop
      vertex -25 -195 -105
      vertex -25 -190 -100
      vertex -25 -195 105
    endloop
  endfacet
  facet normal 1 0 0
    outer loop
      vertex -25 -195 -105
      vertex -25 195 -105
      vertex -25 -190 -100
    endloop
  endfacet
  facet normal 1 0 0
    outer loop
      vertex -25 -195 105
      vertex -25 -190 -100
      vertex -25 -190 100
    endloop
  endfacet
  facet normal 1 0 0
    outer loop
      vertex -25 -195 105
      vertex -25 -190 100
      vertex -25 195 105
    endloop
  endfacet
  facet normal 1 0 0
    outer loop
      vertex -25 -190 -100
      vertex -25 195 -105
      vertex -25 190 -100
    endloop
  endfacet
  facet normal 1 0 0
    outer loop
      vertex -25 -190 100
      vertex -25 190 100
      vertex -25 195 105
    endloop
  endfacet
  facet normal -1 0 0
    outer loop
      vertex -25 -180 -90
      vertex -25 -180 90
      vertex -25 -175 85
    endloop
  endfacet
  facet normal -1 0 0
    outer loop
      vertex -25 -180 -90
      vertex -25 -175 -85
      vertex -25 180 -90
    endloop
  endfacet
  facet normal -1 0 0
    outer loop
      vertex -25 -180 -90
      vertex -25 -175 85
      vertex -25 -175 -85
    endloop
  endfacet
  facet normal 0 0 -1
    outer loop
      vertex -25 -180 -90
      vertex -25 180 -90
      vertex 25 180 -90
    endloop
  endfacet
  facet normal 0 -1 0
    outer loop
      vertex -25 -180 -90
      vertex 25 -180 -90
      vertex 25 -180 90
    endloop
  endfacet
  facet normal 0 -1 0
    outer loop
      vertex -25 -180 -90
      vertex 25 -180 90
      vertex -25 -180 90
    endloop
  endfacet
  facet normal 0 0 -1
    outer loop
      vertex -25 -180 -90
      vertex 25 180 -90
      vertex 25 -180 -90
    endloop
  endfacet
  facet normal -1 0 0
    outer loop
      vertex -25 -180 90
      vertex -25 180 90
      vertex -25 -175 85
    endloop
  endfacet
  facet normal 0 0 1
    outer loop
      vertex -25 -180 90
      vertex 25 -180 90
      vertex -25 180 90
    endloop
  endfacet
  facet normal 0 1 0
    outer loop
      vertex -25 -175 -85
      vertex -25 -175 85
      vertex 25 -175 -85
    endloop
  endfacet
  facet normal -1 0 0
    outer loop
      vertex -25 -175 -85
      vertex -25 175 -85
      vertex -25 180 -90
    endloop
  endfacet
  facet normal 0 0 1
    outer loop
      vertex -25 -175 -85
      vertex 25 -175 -85
      vertex -25 175 -85
    endloop
  endfacet
  facet normal 0 0 -1
    outer loop
      vertex -25 -175 85
      vertex -25 175 85
      vertex 25 175 85
    endloop
  endfacet
  facet normal -1 0 0
    outer loop
      vertex -25 -175 85
      vertex -25 180 90
      vertex -25 175 85
    endloop
  endfacet
  facet normal 0 1 0
    outer loop
      vertex -25 -175 85
      vertex 25 -175 85
      vertex 25 -175 -85
    endloop
  endfacet
  facet normal 0 0 -1
    outer loop
      vertex -25 -175 85
      vertex 25 175 85
      vertex 25 -175 85
    endloop
  endfacet
  facet normal -1 0 0
    outer loop
      vertex -25 175 -85
      vertex -25 175 85
      vertex -25 180 90
    endloop
  endfacet
  facet normal -1 0 0
    outer loop
      vertex -25 175 -85
      vertex -25 180 90
      vertex -25 180 -90
    endloop
  endfacet
  facet normal 0 0 1
    outer loop
      vertex -25 175 -85
      vertex 25 -175 -85
      vertex 25 175 -85
    endloop
  endfacet
  facet normal 0 -1 0
    outer loop
      vertex -25 175 -85
      vertex 25 175 -85
      vertex 25 175 85
    endloop
  endfacet
  facet normal 0 -1 0
    outer loop
      vertex -25 175 -85
      vertex 25 175 85
      vertex -25 175 85
    endloop
  endfacet
  facet normal 0 1 0
    outer loop
      vertex -25 180 -90
      vertex -25 180 90
      vertex 25 180 -90
    endloop
  endfacet
  facet normal 0 0 1
    outer loop
      vertex -25 180 90
      vertex 25 -180 90
      vertex 25 180 90
    endloop
  endfacet
  facet normal 0 1 0
    outer loop
      vertex -25 180 90
      vertex 25 180 90
      vertex 25 180 -90
    endloop
  endfacet
  facet normal 1 0 0
    outer loop
      vertex -25 190 -100
      vertex -25 195 -105
      vertex -25 190 100
    endloop
  endfacet
  facet normal 1 0 0
    outer loop
      vertex -25 190 100
      vertex -25 195 -105
      vertex -25 195 105
    endloop
  endfacet
  facet normal -1 0 0
    outer loop
      vertex 25 -195 -105
      vertex 25 -195 105
      vertex 25 -190 100
    endloop
  endfacet
  facet normal -1 0 0
    outer loop
      vertex 25 -195 -105
      vertex 25 -190 -100
      vertex 25 195 -105
    endloop
  endfacet
  facet normal -1 0 0
    outer loop
      vertex 25 -195 -105
      vertex 25 -190 100
      vertex 25 -190 -100
    endloop
  endfacet
  facet normal 0 0 -1
    outer loop
      vertex 25 -195 -105
      vertex 25 195 -105
      vertex 30 195 -105
    endloop
  endfacet
  facet normal 0 -1 0
    outer loop
      vertex 25 -195 -105
      vertex 30 -195 -105
      vertex 30 -195 105
    endloop
  endfacet
  facet normal 0 -1 0
    outer loop
      vertex 25 -195 -105
      vertex 30 -195 105
      vertex 25 -195 105
    endloop
  endfacet
  facet normal 0 0 -1
    outer loop
      vertex 25 -195 -105
      vertex 30 195 -105
      vertex 30 -195 -105
    endloop
  endfacet
  facet normal -1 0 0
    outer loop
      vertex 25 -195 105
      vertex 25 195 105
      vertex 25 -190 100
    endloop
  endfacet
  facet normal 0 0 1
    outer loop
      vertex 25 -195 105
      vertex 30 -195 105
      vertex 25 195 105
    endloop
  endfacet
  facet normal 0 1 0
    outer loop
      vertex 25 -190 -100
      vertex 25 -190 100
      vertex 30 -190 -100
    endloop
  endfacet
  facet normal -1 0 0
    outer loop
      vertex 25 -190 -100
      vertex 25 190 -100
      vertex 25 195 -105
    endloop
  endfacet
  facet normal 0 0 1
    outer loop
      vertex 25 -190 -100
      vertex 30 -190 -100
      vertex 25 190 -100
    endloop
  endfacet
  facet normal 0 0 -1
    outer loop
      vertex 25 -190 100
      vertex 25 190 100
      vertex 30 190 100
    endloop
  endfacet
  facet normal -1 0 0
    outer loop
      vertex 25 -190 100
      vertex 25 195 105
      vertex 25 190 100
    endloop
  endfacet
  facet normal 0 1 0
    outer loop
      vertex 25 -190 100
      vertex 30 -190 100
      vertex 30 -190 -100
    endloop
  endfacet
  facet normal 0 0 -1
    outer loop
      vertex 25 -190 100
      vertex 30 190 100
      vertex 30 -190 100
    endloop
  endfacet
  facet normal 1 0 0
    outer loop
      vertex 25 -180 -90
      vertex 25 -175 -85
      vertex 25 -180 90
    endloop
  endfacet
  facet normal 1 0 0
    outer loop
      vertex 25 -180 -90
      vertex 25 180 -90
      vertex 25 -175 -85
    endloop
  endfacet
  facet normal 1 0 0
    outer loop
      vertex 25 -180 90
      vertex 25 -175 -85
      vertex 25 -175 85
    endloop
  endfacet
  facet normal 1 0 0
    outer loop
      vertex 25 -180 90
      vertex 25 -175 85
      vertex 25 180 90
    endloop
  endfacet
  facet normal 1 0 0
    outer loop
      vertex 25 -175 -85
      vertex 25 180 -90
      vertex 25 175 -85
    endloop
  endfacet
  facet normal 1 0 0
    outer loop
      vertex 25 -175 85
      vertex 25 175 85
      vertex 25 180 90
    endloop
  endfacet
  facet normal 1 0 0
    outer loop
      vertex 25 175 -85
      vertex 25 180 -90
      vertex 25 175 85
    endloop
  endfacet
  facet normal 1 0 0
    outer loop
      vertex 25 175 85
      vertex 25 180 -90
      vertex 25 180 90
    endloop
  endfacet
  facet normal -1 0 0
    outer loop
      vertex 25 190 -100
      vertex 25 190 100
      vertex 25 195 105
    endloop
  endfacet
  facet normal -1 0 0
    outer loop
      vertex 25 190 -100
      vertex 25 195 105
      vertex 25 195 -105
    endloop
  endfacet
  facet normal 0 0 1
    outer loop
      vertex 25 190 -100
      vertex 30 -190 -100
      vertex 30 190 -100
    endloop
  endfacet
  facet normal 0 -1 0
    outer loop
      vertex 25 190 -100
      vertex 30 190 -100
      vertex 30 190 100
    endloop
  endfacet
  facet normal 0 -1 0
    outer loop
      vertex 25 190 -100
      vertex 30 190 100
      vertex 25 190 100
    endloop
  endfacet
  facet normal 0 1 0
    outer loop
      vertex 25 195 -105
      vertex 25 195 105
      vertex 30 195 -105
    endloop
  endfacet
  facet normal 0 0 1
    outer loop
      vertex 25 195 105
      vertex 30 -195 105
      vertex 30 195 105
    endloop
  endfacet
  facet normal 0 1 0
    outer loop
      vertex 25 195 105
      vertex 30 195 105
      vertex 30 195 -105
    endloop
  endfacet
  facet normal 1 0 0
    outer loop
      vertex 30 -195 -105
      vertex 30 -190 -100
      vertex 30 -195 105
    endloop
  endfacet
  facet normal 1 0 0
    outer loop
      vertex 30 -195 -105
      vertex 30 195 -105
      vertex 30 -190 -100
    endloop
  endfacet
  facet normal 1 0 0
    outer loop
      vertex 30 -195 105
      vertex 30 -190 -100
      vertex 30 -190 100
    endloop
  endfacet
  facet normal 1 0 0
    outer loop
      vertex 30 -195 105
      vertex 30 -190 100
      vertex 30 195 105
    endloop
  endfacet
  facet normal 1 0 0
    outer loop
      vertex 30 -190 -100
      vertex 30 195 -105
      vertex 30 190 -100
    endloop
  endfacet
  facet normal 1 0 0
    outer loop
      vertex 30 -190 100
      vertex 30 190 100
      vertex 30 195 105
    endloop
  endfacet
  facet normal 1 0 0
    outer loop
      vertex 30 190 -100
      vertex 30 195 -105
      vertex 30 190 100
    endloop
  endfacet
  facet normal 1 0 0
    outer loop
      vertex 30 190 100
      vertex 30 195 -105
      vertex 30 195 105
    endloop
  endfacet
endsolid openscad_duct_connector_type_b
